<?xml version="1.0" standalone="no"?>
<!DOCTYPE svg PUBLIC "-//W3C//DTD SVG 20010904//EN"
 "http://www.w3.org/TR/2001/REC-SVG-20010904/DTD/svg10.dtd">
<svg version="1.0" xmlns="http://www.w3.org/2000/svg"
 width="1200.000000pt" height="630.000000pt" viewBox="0 0 1200.000000 630.000000"
 preserveAspectRatio="xMidYMid meet">

<g transform="translate(0.000000,630.000000) scale(0.100000,-0.100000)"
fill="#ffffff" stroke="none">
<path d="M3761 6256 c-15 -62 -15 -62 27 -74 48 -13 391 -105 657 -177 116
-31 232 -62 259 -70 27 -8 52 -13 56 -10 4 3 11 21 14 41 4 19 9 41 12 48 3 9
-14 18 -53 29 -32 8 -150 40 -263 70 -113 31 -308 84 -435 118 -126 34 -237
63 -246 66 -12 3 -19 -7 -28 -41z"/>
<path d="M7435 6104 c-16 -2 -70 -9 -120 -15 -169 -20 -376 -85 -510 -160
-138 -76 -215 -151 -266 -256 l-30 -63 -145 0 -144 0 0 195 0 195 -460 0 -460
0 0 -130 0 -129 -102 -3 -103 -3 -3 -197 -2 -197 102 -3 103 -3 3 -132 3 -133
459 0 460 0 0 195 0 195 145 0 145 0 24 -52 c45 -99 129 -182 258 -257 489
-281 1355 -241 1737 79 383 322 87 741 -604 855 -87 15 -428 28 -490 19z"/>
<path d="M3740 5535 l0 -55 525 0 525 0 0 55 0 55 -525 0 -525 0 0 -55z"/>
<path d="M4660 5125 c-47 -13 -119 -32 -160 -43 -41 -11 -187 -50 -325 -87
-137 -37 -288 -77 -335 -90 -85 -22 -85 -22 -83 -53 2 -16 7 -41 12 -55 l9
-24 89 24 c131 35 555 149 740 198 89 24 166 46 171 49 12 7 -9 99 -23 102 -6
1 -48 -8 -95 -21z"/>
<path d="M5560 4914 c-469 -43 -918 -217 -1291 -500 -133 -101 -363 -330 -461
-460 -254 -335 -423 -736 -485 -1151 -24 -164 -24 -522 0 -687 80 -532 320
-1010 702 -1391 203 -203 416 -356 655 -472 699 -337 1463 -337 2160 0 479
232 902 658 1133 1140 303 630 326 1354 64 1992 -128 311 -299 567 -542 810
-376 377 -852 619 -1375 700 -101 15 -462 28 -560 19z m540 -329 c454 -76 853
-281 1178 -604 378 -377 600 -873 629 -1403 l6 -118 -2153 0 -2153 0 6 123
c14 271 93 574 212 817 283 574 806 998 1420 1149 104 25 172 37 335 55 78 9
430 -4 520 -19z"/>
</g>
</svg>
